<mxfile host="app.diagrams.net" modified="2023-07-14T21:25:20.191Z" agent="Mozilla/5.0 (X11; Linux x86_64) AppleWebKit/537.36 (KHTML, like Gecko) Chrome/112.0.0.0 YaBrowser/23.5.1.667 Yowser/2.5 Safari/537.36" etag="JDeI4Ze6ZEJUsp6i8ZfQ" version="21.6.2" type="github">
  <diagram name="Страница 1" id="iyd2mUeCuzbvWb1vzOWn">
    <mxGraphModel dx="1346" dy="831" grid="1" gridSize="10" guides="1" tooltips="1" connect="1" arrows="1" fold="1" page="1" pageScale="1" pageWidth="827" pageHeight="1169" math="0" shadow="0">
      <root>
        <mxCell id="0" />
        <mxCell id="1" parent="0" />
      </root>
    </mxGraphModel>
  </diagram>
</mxfile>
